<svg width="24" height="24" viewBox="0 0 24 24" fill="none" xmlns="http://www.w3.org/2000/svg">
<g clip-path="url(#clip0_426_136)">
<path d="M11.04 0H0.96C0.429807 0 0 0.429807 0 0.96V11.04C0 11.5702 0.429807 12 0.96 12H11.04C11.5702 12 12 11.5702 12 11.04V0.96C12 0.429807 11.5702 0 11.04 0Z" fill="#081537"/>
<path d="M23.04 12H12.96C12.4298 12 12 12.4298 12 12.96V23.04C12 23.5702 12.4298 24 12.96 24H23.04C23.5702 24 24 23.5702 24 23.04V12.96C24 12.4298 23.5702 12 23.04 12Z" fill="#AB00FF"/>
<path d="M7.36347 1.43989L4.08008 10.4609L4.75666 10.7072L8.04005 1.68614L7.36347 1.43989Z" fill="#1D4DCA"/>
<path fillRule="evenodd" clipRule="evenodd" d="M18.0002 15.2998L14.7002 17.0998L15.9002 17.7538V19.5538L18.0002 20.6998L20.1002 19.5538V17.7538L20.7002 17.4268V19.4998H21.3002V17.0998L18.0002 15.2998ZM20.0462 17.0998L18.0002 18.2158L15.9542 17.0998L18.0002 15.9838L20.0462 17.0998ZM18.0002 20.0158L19.5002 19.1968V18.0808L18.0002 18.8998L16.5002 18.0808V19.1968L18.0002 20.0158Z" fill="white"/>
</g>
<defs>
<clipPath id="clip0_426_136">
<rect width="24" height="24" fill="white"/>
</clipPath>
</defs>
</svg>
