<svg width="50" height="50" viewBox="0 0 50 50" fill="none" xmlns="http://www.w3.org/2000/svg">
<g clip-path="url(#clip0_426_136)">
<path d="M23 0H2C0.89543 0 0 0.89543 0 2V23C0 24.1046 0.89543 25 2 25H23C24.1046 25 25 24.1046 25 23V2C25 0.89543 24.1046 0 23 0Z" fill="#081537"/>
<path d="M48 25H27C25.8954 25 25 25.8954 25 27V48C25 49.1046 25.8954 50 27 50H48C49.1046 50 50 49.1046 50 48V27C50 25.8954 49.1046 25 48 25Z" fill="#AB00FF"/>
<path d="M15.3409 3.00009L8.50049 21.7939L9.91003 22.307L16.7504 3.51312L15.3409 3.00009Z" fill="#1D4DCA"/>
<path fillRule="evenodd" clipRule="evenodd" d="M37.5 31.875L30.625 35.625L33.125 36.9875V40.7375L37.5 43.125L41.875 40.7375V36.9875L43.125 36.3063V40.625H44.375V35.625L37.5 31.875ZM41.7625 35.625L37.5 37.95L33.2375 35.625L37.5 33.3L41.7625 35.625ZM37.5 41.7L40.625 39.9938V37.6688L37.5 39.375L34.375 37.6688V39.9938L37.5 41.7Z" fill="white"/>
</g>
<defs>
<clipPath id="clip0_426_136">
<rect width="50" height="50" fill="white"/>
</clipPath>
</defs>
</svg>
